<svg class="process-icon" title="Recompose process — step one icon" xmlns="http://www.w3.org/2000/svg" width="86.42" height="86.42" viewBox="0 0 86.42 86.42">
  <style>
    .process-icon path {fill:#3b3331}
  </style>
    <path d="M25.01 62.81c-.15 0-.3-.07-.4-.2a.498.498 0 01.1-.7l5.35-4.07c.22-.17.53-.12.7.1.17.22.12.53-.09.7l-5.35 4.07c-.1.06-.21.1-.31.1z"/>
    <path d="M50.74 46.62c-.13 0-.25-.05-.35-.14l-4.72-4.65c-.2-.19-.2-.51-.01-.71.19-.2.51-.2.71-.01l4.72 4.65c.2.19.2.51.01.71-.1.1-.23.15-.36.15z"/>
    <path d="M64.8 39.68h-.03a.487.487 0 01-.47-.52l.32-6.42c.01-.28.21-.48.52-.47.28.01.49.25.47.52l-.32 6.42c-.01.27-.23.47-.49.47z"/>
    <path d="M28.41 48.42c-.22 0-.42-.14-.48-.36l-2.25-8.03c-.07-.27.08-.54.35-.62.27-.07.54.08.62.35l2.25 8.03c.07.27-.08.54-.35.62-.05.01-.1.01-.14.01z"/>
    <path d="M48.31 29.57a.5.5 0 01-.37-.16l-4.22-4.55c-.19-.2-.17-.52.03-.71.2-.19.52-.18.71.03l4.22 4.55c.19.2.17.52-.03.71-.1.09-.22.13-.34.13z"/>
    <path d="M37.92 59.91c-.2 0-.39-.12-.47-.33-.1-.26.04-.55.29-.64l6.65-2.47a.496.496 0 11.35.93l-6.65 2.47a.38.38 0 01-.17.04z"/>
    <path d="M37.73 62.47h-.02l-5.65-.23a.496.496 0 01-.48-.52c.01-.28.23-.5.52-.48l5.65.23c.28.01.49.24.48.52-.01.27-.23.48-.5.48z"/>
    <path d="M27.42 29.14c-.15 0-.3-.07-.4-.2l-2.51-3.39a.505.505 0 01.1-.7c.22-.17.53-.12.7.1l2.51 3.39c.16.22.12.54-.1.7-.09.07-.2.1-.3.1z"/>
    <path d="M34.16 39.91c-.06 0-.12-.01-.18-.03l-6.89-2.72a.498.498 0 01-.28-.65c.1-.26.39-.38.65-.28l6.89 2.72c.26.1.38.39.28.65-.08.19-.27.31-.47.31z"/>
    <path d="M35.14 46.44c-.05 0-.1-.01-.15-.02a.5.5 0 01-.33-.62l2.18-7.18a.5.5 0 01.62-.33.5.5 0 01.33.62l-2.18 7.18c-.05.21-.25.35-.47.35z"/>
    <path d="M48.34 18.76l-5.26-.06a.49.49 0 01-.49-.51.5.5 0 01.5-.49h.01l5.26.06c.28 0 .5.23.49.51-.01.27-.23.49-.51.49z"/>
    <path d="M17.05 42.62c-.13 0-.27-.05-.36-.16-.19-.2-.18-.52.02-.71l4.26-4.02c.2-.19.52-.18.71.02s.18.52-.02.71l-4.26 4.02c-.1.1-.23.14-.35.14z"/>
    <path d="M22.61 33.17c-.03 0-.06 0-.1-.01l-3.28-.63a.504.504 0 11.19-.99l3.28.63c.27.05.45.31.4.59-.05.24-.25.41-.49.41z"/>
    <path d="M40.24 34.18a.5.5 0 01-.37-.16l-4.12-4.39c-.19-.2-.18-.52.02-.71.2-.19.52-.18.71.02l4.12 4.39c.19.2.18.52-.02.71-.09.1-.22.14-.34.14z"/>
    <path d="M38.13 26.54c-.2 0-.39-.12-.46-.32l-3.07-7.75c-.1-.26.02-.55.28-.65s.55.02.65.28l3.07 7.75c.1.26-.02.55-.28.65-.07.03-.13.04-.19.04z"/>
    <path d="M44.13 69.4h-.04a.497.497 0 01-.46-.54l.57-6.88c.02-.28.29-.48.54-.46.28.02.48.26.46.54l-.57 6.88c-.02.27-.24.46-.5.46z"/>
    <path d="M39.59 38.93c-.17 0-.34-.09-.43-.25a.493.493 0 01.18-.68l5.94-3.5c.24-.14.54-.06.68.18s.06.54-.18.68l-5.94 3.5c-.08.05-.16.07-.25.07z"/>
    <path d="M56.35 54.37c-.18 0-.35-.1-.44-.26a.501.501 0 01.21-.68l5.67-3.03c.24-.13.55-.04.68.21.13.24.04.55-.21.68l-5.67 3.03c-.08.03-.16.05-.24.05z"/>
    <path d="M50.57 37.69a.494.494 0 01-.43-.74l3.62-6.48c.13-.24.44-.33.68-.19.24.13.33.44.19.68L51 37.43c-.09.16-.26.26-.43.26z"/>
    <path d="M52.21 68.8a.494.494 0 01-.45-.7l2.76-6.23c.11-.25.41-.37.66-.25.25.11.37.41.25.66l-2.76 6.23c-.09.18-.27.29-.46.29z"/>
    <path d="M62.09 63.66c-.25 0-.46-.18-.49-.43l-.56-4.14a.49.49 0 01.43-.56c.28-.04.53.15.56.43l.56 4.14a.49.49 0 01-.43.56c-.02-.01-.05 0-.07 0z"/>
    <path d="M69.89 49.12c-.1 0-.21-.03-.29-.1l-2.65-1.92a.506.506 0 01-.11-.7c.16-.22.48-.27.7-.11l2.65 1.92a.506.506 0 01-.3.91z"/>
    <path d="M40.8 51.44a.51.51 0 01-.49-.39c-.06-.27.11-.54.38-.6l5.68-1.3a.503.503 0 01.22.98l-5.68 1.3c-.03.01-.07.01-.11.01z"/>
    <path d="M54.71 50.59c-.24 0-.45-.17-.49-.42l-1.15-6.68c-.05-.27.14-.53.41-.58.27-.05.53.14.58.41L55.21 50c.05.27-.14.53-.41.58-.03.01-.06.01-.09.01z"/>
    <path d="M52.62 55.91c-.06 0-.11-.01-.17-.03L47.23 54c-.26-.09-.4-.38-.3-.64s.38-.39.64-.3l5.22 1.88c.26.09.4.38.3.64-.07.21-.26.33-.47.33z"/>
    <path d="M46.19 23.08c-.17 0-.34-.09-.43-.25a.493.493 0 01.18-.68l5.61-3.28c.24-.14.54-.06.68.18s.06.54-.18.68l-5.61 3.28c-.08.05-.17.07-.25.07z"/>
    <path d="M33.95 53.62c-.14 0-.28-.06-.38-.17l-3.27-3.81a.505.505 0 01.05-.71c.21-.18.52-.16.71.05l3.27 3.81c.18.21.16.53-.05.71-.1.08-.22.12-.33.12z"/>
    <path d="M59.18 32.8c-.03 0-.06 0-.09-.01a.514.514 0 01-.41-.58L60.14 24c.05-.27.31-.45.58-.41.27.05.45.31.41.58l-1.45 8.21c-.05.25-.26.42-.5.42z"/>
    <path d="M61.08 43.91c-.18 0-.36-.1-.44-.27l-3.47-6.74a.488.488 0 01.22-.67c.25-.13.55-.03.67.22l3.47 6.74c.13.25.03.55-.22.67-.08.03-.15.05-.23.05z"/>
    <path d="M24.04 53.51c-.03 0-.07 0-.1-.01l-5.62-1.19c-.27-.06-.44-.32-.39-.59s.32-.44.59-.39l5.62 1.19c.27.06.44.32.39.59-.05.24-.25.4-.49.4z"/>
    <path d="M48.6 61.93c-.25 0-.46-.19-.5-.44l-.54-4.28a.51.51 0 01.43-.56c.27-.03.52.16.56.43l.54 4.28a.51.51 0 01-.43.56c-.02.01-.04.01-.06.01z"/>
    <path d="M59.63 65.84h-.07l-3.68-.52a.5.5 0 11.15-.99l3.68.52a.5.5 0 01.42.57c-.04.24-.26.42-.5.42z"/>
    <path d="M65.18 53.51c-.27 0-.49-.21-.5-.48l-.22-4.35c-.01-.28.2-.51.47-.52.27-.02.51.2.52.47l.22 4.35c.01.28-.2.51-.47.52 0 .01-.01.01-.02.01z"/>
    <path d="M60.72 48.72h-.03l-3.54-.2a.496.496 0 01-.47-.53c.02-.27.23-.48.53-.47l3.54.2c.28.02.49.25.47.53-.02.27-.24.47-.5.47z"/>
    <path d="M68.92 40.61c-.22 0-.42-.15-.48-.37l-1.26-4.63c-.07-.27.08-.54.35-.61a.5.5 0 01.61.35l1.26 4.63c.07.27-.08.54-.35.61-.04.01-.09.02-.13.02z"/>
    <path d="M63.44 46.44a.495.495 0 01-.24-.93l4.87-2.77c.24-.14.54-.05.68.19s.05.55-.19.68l-4.87 2.77c-.09.04-.17.06-.25.06z"/>
    <path d="M60.4 37.59a.488.488 0 01-.44-.72l1.7-3.41c.12-.25.42-.35.67-.22.25.12.35.42.22.67l-1.7 3.41c-.09.17-.26.27-.45.27z"/>
    <path d="M50.37 41.17c-.19 0-.37-.11-.45-.29a.504.504 0 01.24-.67l3.41-1.61a.504.504 0 01.43.91l-3.41 1.61c-.08.04-.15.05-.22.05z"/>
    <path d="M52.52 52.68c-.15 0-.3-.07-.4-.2l-2.61-3.55a.498.498 0 01.11-.7c.22-.16.54-.12.7.11l2.61 3.55c.16.22.12.54-.11.7-.09.06-.2.09-.3.09z"/>
    <path d="M40.87 56.32c-.13 0-.26-.05-.36-.15-.19-.2-.19-.51.01-.71l2.87-2.81c.2-.19.52-.19.71.01.19.2.19.51-.01.71l-2.87 2.81c-.1.09-.23.14-.35.14z"/>
    <path d="M40.8 48.72c-.21 0-.4-.13-.47-.34l-1.74-5.01c-.09-.26.05-.55.31-.64.26-.09.54.05.64.31l1.74 5.01c.09.26-.05.55-.31.64-.06.03-.11.03-.17.03z"/>
    <path d="M46.34 47c-.04 0-.08 0-.12-.02l-3.23-.81a.498.498 0 01-.36-.61c.07-.27.33-.43.61-.36l3.23.81c.27.07.43.34.36.61a.52.52 0 01-.49.38z"/>
    <path d="M42.84 33.74c-.24 0-.45-.17-.49-.42l-.63-3.85c-.04-.27.14-.53.41-.57.27-.04.53.14.57.41l.63 3.85c.04.27-.14.53-.41.57-.03.01-.05.01-.08.01z"/>
    <path d="M31.77 36.32a.499.499 0 01-.13-.98l5.77-1.63a.499.499 0 11.27.96l-5.77 1.63c-.05.01-.1.02-.14.02z"/>
    <path d="M30.08 26.96a.47.47 0 01-.35-.15c-.2-.2-.2-.51 0-.71l3.94-3.94c.2-.2.51-.2.71 0s.2.51 0 .71l-3.94 3.94c-.1.1-.23.15-.36.15z"/>
    <path d="M51.03 29.9c-.24 0-.45-.17-.49-.42l-.76-4.68c-.04-.27.14-.53.41-.57.27-.04.53.14.57.41l.76 4.68c.04.27-.14.53-.41.57-.03.01-.05.01-.08.01z"/>
    <path d="M57.74 26.2c-.25 0-.46-.19-.5-.44l-.53-4.23a.51.51 0 01.43-.56c.26-.03.52.16.56.43l.53 4.23a.51.51 0 01-.43.56c-.02.01-.04.01-.06.01z"/>
    <path d="M56.47 45.68h-.06a.492.492 0 01-.43-.56l.53-4.23c.03-.27.3-.47.56-.43.27.03.47.28.43.56l-.53 4.23c-.03.24-.25.43-.5.43z"/>
    <path d="M55.12 34.81a.503.503 0 01-.07-1l2.06-.27c.27-.04.52.16.56.43.04.27-.16.52-.43.56l-2.06.27c-.02.01-.04.01-.06.01z"/>
    <path d="M47.38 40.08c-.28 0-.5-.22-.5-.5v-3.71c0-.28.22-.5.5-.5s.5.22.5.5v3.71c0 .27-.22.5-.5.5z"/>
    <path d="M62.11 31.14c-.15 0-.31-.07-.4-.21a.507.507 0 01.11-.7l2.92-2.13c.22-.16.53-.11.7.11.16.22.11.54-.11.7l-2.92 2.13c-.1.07-.2.1-.3.1z"/>
    <path d="M40.15 28.27c-.04 0-.09-.01-.13-.02a.496.496 0 01-.35-.61l1.38-5.08a.496.496 0 11.96.26l-1.38 5.08c-.06.22-.26.37-.48.37z"/>
    <path d="M42.48 20.97c-.1 0-.19-.03-.28-.08l-4.13-2.75a.498.498 0 01.55-.83l4.13 2.75c.23.15.29.46.14.69a.49.49 0 01-.41.22z"/>
    <path d="M26.67 23.46c-.25 0-.46-.18-.49-.43a.49.49 0 01.43-.56l3.76-.52c.26-.04.53.15.56.43a.49.49 0 01-.43.56l-3.76.52h-.07z"/>
    <path d="M27.78 34.99a.507.507 0 01-.44-.74l2.57-4.87c.13-.24.43-.34.68-.21.24.13.34.43.21.68l-2.57 4.87c-.09.17-.27.27-.45.27z"/>
    <path d="M20.48 30.18c-.15 0-.31-.07-.41-.21a.507.507 0 01.11-.7l3.24-2.34c.22-.16.54-.11.7.11.16.22.11.54-.11.7l-3.24 2.34c-.08.07-.19.1-.29.1z"/>
    <path d="M24.81 45.9c-.03 0-.06 0-.1-.01l-5.55-1.09c-.27-.05-.45-.32-.39-.59s.32-.45.59-.39l5.55 1.09c.27.05.45.32.39.59-.05.23-.26.4-.49.4z"/>
    <path d="M29.22 43.68c-.14 0-.28-.06-.38-.17a.506.506 0 01.05-.71l2.33-2.03c.21-.18.52-.16.71.05.18.21.16.52-.05.71l-2.33 2.03c-.1.08-.21.12-.33.12z"/>
    <path d="M33.95 49.81c-.21 0-.4-.13-.47-.33l-1.95-5.41a.501.501 0 01.94-.34l1.95 5.41a.501.501 0 01-.47.67z"/>
    <path d="M49.56 33.02c-.03 0-.06 0-.1-.01l-3.67-.72a.509.509 0 01-.4-.59c.05-.27.32-.45.59-.4l3.67.72c.27.05.45.32.4.59-.04.24-.25.41-.49.41z"/>
    <path d="M43.96 43.83a.49.49 0 01-.41-.22l-2.39-3.48a.5.5 0 01.13-.7.5.5 0 01.7.13l2.39 3.48a.5.5 0 01-.13.7c-.1.06-.2.09-.29.09z"/>
    <path d="M24.91 36.73c-.25 0-.47-.19-.5-.45l-.58-5.41c-.03-.27.17-.52.44-.55.27-.03.52.17.55.44l.58 5.41c.03.27-.17.52-.44.55-.01.01-.03.01-.05.01z"/>
    <path d="M23.06 43.28c-.03 0-.07 0-.1-.01a.495.495 0 01-.39-.59l.76-3.81c.05-.27.32-.45.59-.39.27.05.45.32.39.59l-.76 3.81c-.04.24-.25.4-.49.4z"/>
    <path d="M21.34 48.12c-.05 0-.09-.01-.14-.02l-4.66-1.32c-.27-.08-.42-.35-.34-.62s.35-.42.62-.34l4.66 1.32c.27.08.42.35.34.62-.06.22-.26.36-.48.36z"/>
    <path d="M57.23 28.81c-.06 0-.11-.01-.17-.03l-4.24-1.52a.501.501 0 01.34-.94l4.24 1.52a.501.501 0 01-.17.97z"/>
    <path d="M33.51 32.84c-.28 0-.5-.22-.5-.5v-4.03c0-.28.22-.5.5-.5s.5.22.5.5v4.03c0 .27-.22.5-.5.5z"/>
    <path d="M36.67 57.1h-.03a.49.49 0 01-.47-.53l.33-6.31a.47.47 0 01.52-.47c.28.01.49.25.47.53l-.33 6.31c-.01.27-.23.47-.49.47z"/>
    <path d="M26.88 54.21c-.24 0-.46-.18-.49-.43l-.64-4.41c-.04-.27.15-.53.42-.57.27-.04.53.15.57.42l.64 4.41c.04.27-.15.53-.42.57-.03.01-.06.01-.08.01z"/>
    <path d="M28.72 56.78a.494.494 0 01-.45-.7l1.85-4.13c.11-.25.41-.37.66-.25.25.11.37.41.25.66l-1.85 4.13c-.08.18-.27.29-.46.29z"/>
    <path d="M23.09 60.99c-.19 0-.36-.1-.45-.28l-2.36-4.9a.5.5 0 11.9-.44l2.36 4.9a.5.5 0 01-.23.67.63.63 0 01-.22.05z"/>
    <path d="M34.05 59.72c-.2 0-.38-.12-.46-.31l-1.52-3.7c-.11-.26.02-.55.27-.65.26-.1.55.02.65.27l1.52 3.7c.11.26-.02.55-.27.65-.06.02-.12.04-.19.04z"/>
    <path d="M31.83 67.11a.52.52 0 01-.43-.24l-2.91-4.79a.504.504 0 01.17-.69c.24-.14.54-.07.69.17l2.91 4.79c.14.24.07.54-.17.69-.08.05-.17.07-.26.07z"/>
    <path d="M37.06 68.55c-.25 0-.47-.19-.5-.45-.03-.27.18-.52.45-.54l4.78-.44c.27-.02.52.18.54.45.03.27-.18.52-.45.54l-4.78.44h-.04z"/>
    <path d="M39.5 65.59c-.08 0-.16-.02-.24-.06a.506.506 0 01-.2-.68l2.22-4.07c.13-.24.44-.33.68-.2.24.13.33.44.2.68l-2.22 4.07c-.1.17-.27.26-.44.26z"/>
    <path d="M50.1 68.55c-.07 0-.15-.02-.22-.05l-3.34-1.61a.5.5 0 11.44-.9l3.34 1.61a.5.5 0 01-.22.95z"/>
    <path d="M59.3 62.87c-.18 0-.36-.1-.45-.27l-2.94-5.77a.488.488 0 01.22-.67.5.5 0 01.67.22l2.94 5.77a.488.488 0 01-.44.72z"/>
    <path d="M64.74 57.21c-.06 0-.12-.01-.17-.03l-5.01-1.85c-.26-.1-.39-.38-.3-.64s.39-.39.64-.3l5.01 1.85c.26.1.39.38.3.64-.07.21-.27.33-.47.33z"/>
    <path d="M51.16 61.45c-.14 0-.28-.06-.38-.17a.506.506 0 01.05-.71l3.1-2.71c.21-.18.52-.16.71.05.18.21.16.52-.05.71l-3.1 2.71c-.09.08-.21.12-.33.12z"/>
    <path d="M21.17 50.71c-.15 0-.3-.07-.4-.2a.505.505 0 01.1-.7l4.03-2.99c.22-.17.53-.12.7.1.16.22.12.54-.1.7l-4.03 2.99c-.09.06-.19.1-.3.1z"/>
    <path d="M19.68 37.37c-.2 0-.4-.13-.47-.33l-1.05-2.89a.501.501 0 01.94-.34l1.05 2.89a.501.501 0 01-.47.67z"/>
    <path d="M26.8 58.17c-.03 0-.07 0-.1-.01l-2.72-.54a.495.495 0 01-.39-.59c.05-.27.32-.45.59-.39l2.72.54c.27.05.45.32.39.59-.05.24-.25.4-.49.4z"/>
    <path d="M55.18 24.78c-.12 0-.23-.04-.33-.12l-3.28-2.86a.505.505 0 01-.05-.71c.18-.21.5-.23.71-.05l3.28 2.86c.21.18.23.5.05.71-.1.11-.24.17-.38.17z"/>
    <path d="M66.9 56.07a.504.504 0 01-.45-.72l1.99-4.21a.504.504 0 01.91.43l-1.99 4.21c-.09.18-.27.29-.46.29z"/>
    <path d="M64.02 61.29c-.13 0-.25-.05-.35-.15-.2-.19-.2-.51 0-.71l2.77-2.79c.19-.2.51-.2.71 0 .2.19.2.51 0 .71l-2.77 2.79c-.1.1-.23.15-.36.15z"/>
    <path d="M66.46 42.34c-.03 0-.06 0-.09-.01l-4.1-.77a.499.499 0 01.18-.98l4.1.77c.27.05.45.31.4.58a.51.51 0 01-.49.41z"/>
    <path d="M34.21 67.66a.503.503 0 01-.46-.7l1.47-3.46c.11-.25.4-.37.66-.26.25.11.37.4.26.66l-1.47 3.46c-.08.18-.27.3-.46.3z"/>
    <path d="M47.61 64.67c-.23 0-.44-.17-.49-.4-.05-.27.12-.53.39-.59l4.17-.82c.27-.05.53.12.59.39.05.27-.12.53-.39.59l-4.17.82c-.03.01-.07.01-.1.01z"/>
</svg>