<svg class="process-icon" title="Recompose process — step four icon" xmlns="http://www.w3.org/2000/svg" width="86.44" height="86.44" viewBox="0 0 86.44 86.44">
  <style>
    .process-icon path {fill:#3b3331}
  </style>
  <!-- <path d="M69.43 49.34c.08-.87.67-1.7 1.79-2.53.55-.41 1.19-.8 1.81-1.18.58-.35 1.18-.72 1.71-1.1 1.77-1.27 2.4-2.89 2.78-4.31.26-.96.28-2 .06-3.1a.463.463 0 00-.26-.33.477.477 0 00-.42.02c-1.29.73-2.37 1.5-3.3 2.34-1.87 1.69-3.32 3.9-4.2 6.27V34.53c4.48-.19 8.07-3.89 8.07-8.41 0-4.65-3.78-8.43-8.43-8.43s-8.43 3.78-8.43 8.43c0 4.46 3.48 8.11 7.87 8.4v21.37c-.88-2.36-2.33-4.56-4.19-6.24-.93-.84-2.01-1.61-3.3-2.34a.477.477 0 00-.42-.02c-.13.06-.23.18-.26.33-.22 1.09-.2 2.14.06 3.1.38 1.42 1.01 3.05 2.78 4.31.53.38 1.13.75 1.71 1.1.62.38 1.27.77 1.82 1.18 1.1.81 1.68 1.62 1.78 2.47 0 .02 0 .04.01.06 0 .01.01.02.01.02v4.01h-10.9c-.35-4.89-.48-15.57-.36-19.22h1.32c1.42 0 2.84.01 4.26 0 .3 0 .59-.04.86-.12.69-.19 1.23-.59 1.52-1.12.27-.49.32-1.06.13-1.66-.07-.21-.15-.43-.25-.65-.38-.84-.98-1.6-1.85-2.33-.23-.19-.46-.38-.7-.56-.88-.7-1.72-1.35-2.22-2.37-.2-.4-.34-.84-.49-1.31-.16-.5-.32-1.01-.56-1.48-.69-1.36-1.98-2.2-3.3-2.18h-.3c-1.35-.05-2.62.82-3.31 2.18-.24.47-.4.98-.56 1.48-.15.47-.29.91-.49 1.31-.5 1.02-1.34 1.67-2.22 2.37-.24.19-.47.37-.7.56-.87.73-1.48 1.49-1.85 2.33-.1.22-.18.44-.25.65-.2.64-.12 1.36.2 1.92.5.86 1.7 1.02 2.84 1.02.35 0 .7-.01 1.02-.03.24-.01.46-.02.64-.02h3.13c.12 3.65-.01 14.33-.36 19.22H38.75V57.7l5.44-6.79a.461.461 0 10-.72-.58l-4.72 5.89V51.4l5.44-6.79a.461.461 0 10-.72-.58l-4.72 5.89V45.1l5.44-6.79a.461.461 0 10-.72-.58l-4.72 5.89V38.8l5.44-6.79a.461.461 0 10-.72-.58l-4.72 5.89V32.5l5.44-6.79a.461.461 0 10-.72-.58l-4.72 5.89V26.2l5.44-6.79a.461.461 0 10-.72-.58l-4.72 5.89v-9.5c0-.25-.21-.46-.46-.46s-.46.21-.46.46v9.4l-4.64-5.79a.461.461 0 10-.72.58l5.36 6.69v4.82l-4.64-5.79a.461.461 0 10-.72.58l5.36 6.69v4.82l-4.64-5.79a.461.461 0 10-.72.58l5.36 6.69v4.82l-4.64-5.79a.461.461 0 10-.72.58L37.83 45v4.82l-4.64-5.79a.461.461 0 10-.72.58l5.36 6.69v4.82l-4.64-5.79a.461.461 0 10-.72.58l5.36 6.69v6.27H18.65v-6.15c.41.05.82.08 1.23.08 1.61 0 3.25-.34 4.81-1 2.04-.87 3.78-2.21 5.03-3.9.1-.13.12-.3.05-.45a.453.453 0 00-.36-.28c-2.08-.27-4.25.04-6.3.9-1.77.75-3.28 1.87-4.47 3.25v-4.47c.41.05.82.08 1.24.08 1.61 0 3.25-.34 4.81-1 2.04-.87 3.78-2.21 5.03-3.9.1-.13.12-.3.05-.45s-.2-.26-.36-.28c-2.08-.28-4.25.04-6.3.9-1.76.75-3.28 1.87-4.47 3.25V46c.41.05.82.08 1.23.08 1.61 0 3.25-.34 4.81-1 2.04-.87 3.78-2.21 5.03-3.9.1-.13.12-.3.05-.45s-.2-.26-.36-.28c-2.08-.28-4.25.04-6.3.9-1.77.75-3.28 1.87-4.47 3.25v-4.47c.41.05.82.08 1.24.08 1.61 0 3.25-.34 4.81-1 2.04-.87 3.78-2.21 5.03-3.9.1-.13.12-.3.05-.45a.453.453 0 00-.36-.28c-2.08-.27-4.25.04-6.3.9-1.76.75-3.28 1.87-4.47 3.25v-4.47c.41.05.82.08 1.24.08 1.61 0 3.25-.34 4.81-1 2.04-.87 3.78-2.21 5.03-3.9.1-.13.12-.3.05-.45s-.2-.26-.36-.28c-2.08-.28-4.25.04-6.3.9-1.77.75-3.28 1.87-4.47 3.25v-3.41c1.05-1.72 1.61-3.72 1.61-5.82 0-2.16-.59-4.22-1.7-5.97-.17-.27-.61-.27-.78 0-1.11 1.75-1.7 3.82-1.7 5.97 0 2.11.57 4.13 1.64 5.86v3.32a12.257 12.257 0 00-4.43-3.2c-2.04-.87-4.22-1.18-6.3-.9-.16.02-.3.13-.36.28s-.04.32.05.45c1.25 1.68 2.98 3.03 5.03 3.9 1.56.66 3.2 1 4.81 1 .4 0 .8-.04 1.2-.08v4.42a12.257 12.257 0 00-4.43-3.2c-2.04-.87-4.22-1.18-6.3-.9-.16.02-.3.13-.36.28s-.04.32.05.45c1.25 1.68 2.98 3.03 5.03 3.9 1.56.66 3.2 1 4.81 1 .4 0 .8-.04 1.2-.08v4.42a12.257 12.257 0 00-4.43-3.2c-2.04-.87-4.22-1.18-6.3-.9-.16.02-.3.13-.36.28s-.04.32.05.45c1.25 1.68 2.98 3.03 5.03 3.9 1.56.66 3.2 1 4.81 1 .4 0 .8-.04 1.2-.08v4.42a12.257 12.257 0 00-4.43-3.2c-2.04-.87-4.22-1.18-6.3-.9-.16.02-.3.13-.36.28s-.04.32.05.45c1.25 1.68 2.98 3.03 5.03 3.9 1.56.66 3.2 1 4.81 1 .4 0 .8-.04 1.2-.08v4.42a12.257 12.257 0 00-4.43-3.2c-2.04-.87-4.22-1.18-6.3-.9-.16.02-.3.13-.36.28s-.04.32.05.45c1.25 1.68 2.98 3.03 5.03 3.9 1.56.66 3.2 1 4.81 1 .4 0 .8-.04 1.2-.08v6.15h-7.6c-.25 0-.46.21-.46.46s.21.46.46.46h66.38c.25 0 .46-.21.46-.46s-.21-.46-.46-.46h-7.09V49.4c.03-.02.04-.04.04-.06zm4.8-9.52c.74-.67 1.58-1.29 2.55-1.88.07.72.03 1.4-.14 2.03-.36 1.33-.9 2.71-2.43 3.81-.51.36-1.09.72-1.66 1.06-.64.39-1.3.79-1.88 1.22-.26.2-.5.39-.72.59.77-2.58 2.28-5.01 4.28-6.83zm-6.99 16.75c-.58-.43-1.24-.83-1.89-1.23-.56-.34-1.15-.7-1.65-1.06-1.53-1.1-2.07-2.48-2.43-3.81-.17-.63-.22-1.31-.14-2.03.97.59 1.81 1.21 2.55 1.88 2 1.81 3.51 4.25 4.28 6.84-.21-.2-.45-.39-.72-.59zm-43.76-2.64c1.62-.69 3.32-1 4.98-.91-1.09 1.25-2.5 2.26-4.12 2.94-1.62.69-3.32 1-4.98.91 1.09-1.25 2.5-2.26 4.12-2.94zm0-5.86c1.62-.69 3.33-1 4.98-.91-1.09 1.25-2.5 2.26-4.12 2.94-1.62.69-3.32 1-4.98.91 1.09-1.25 2.5-2.26 4.12-2.94zm0-5.87c1.62-.69 3.33-1 4.98-.91-1.09 1.25-2.5 2.26-4.12 2.94-1.62.69-3.32 1-4.98.91 1.09-1.24 2.5-2.25 4.12-2.94zm0-5.86c1.62-.69 3.33-1 4.98-.91-1.09 1.25-2.5 2.26-4.12 2.94-1.62.69-3.32 1-4.98.91 1.09-1.24 2.5-2.25 4.12-2.94zm0-5.86c1.62-.69 3.33-1 4.98-.91-1.09 1.25-2.5 2.26-4.12 2.94-1.62.69-3.32 1-4.98.91 1.09-1.24 2.5-2.25 4.12-2.94zm-11.41 2.03c-1.62-.69-3.03-1.69-4.12-2.94 1.66-.08 3.36.23 4.98.91 1.62.69 3.03 1.69 4.12 2.94-1.65.08-3.36-.22-4.98-.91zm0 5.86c-1.62-.69-3.03-1.69-4.12-2.94 1.66-.08 3.36.23 4.98.91 1.62.69 3.03 1.69 4.12 2.94-1.65.09-3.36-.22-4.98-.91zm0 5.86c-1.62-.69-3.03-1.69-4.12-2.94 1.65-.08 3.36.23 4.98.91 1.62.69 3.03 1.69 4.12 2.94-1.65.09-3.36-.22-4.98-.91zm0 5.86c-1.62-.69-3.03-1.69-4.12-2.94 1.66-.08 3.36.23 4.98.91 1.62.69 3.03 1.69 4.12 2.94-1.65.09-3.36-.22-4.98-.91zm0 5.87c-1.62-.69-3.03-1.69-4.12-2.94 1.66-.08 3.36.23 4.98.91 1.62.69 3.03 1.69 4.12 2.94-1.65.08-3.36-.23-4.98-.91zm6.11-37.11c.76 1.45 1.17 3.1 1.17 4.81s-.4 3.36-1.17 4.81c-.76-1.45-1.17-3.1-1.17-4.81s.4-3.36 1.17-4.81zm32.11 24.9c-.99.04-2.64.11-3.02-.53-.2-.34-.24-.78-.12-1.19.06-.18.12-.36.21-.55.32-.71.84-1.36 1.6-2 .22-.19.45-.36.68-.54.93-.73 1.88-1.48 2.48-2.68.23-.46.39-.96.54-1.44s.3-.93.5-1.34c.52-1.02 1.46-1.68 2.42-1.68h.37c.98-.01 1.93.63 2.46 1.68.21.41.35.86.5 1.34.15.48.31.98.54 1.44.6 1.2 1.55 1.95 2.48 2.68.23.18.46.36.68.54.76.64 1.29 1.29 1.6 2 .08.19.15.37.21.55.11.35.09.67-.06.94-.17.31-.51.55-.96.68-.2.05-.41.08-.63.08-1.42.01-2.83.01-4.25 0h-1.73-.01H54.51h-3.55c-.18 0-.41.01-.67.02zm4.73.9h1.28c-.12 3.7.01 14.3.36 19.22h-2c.35-4.92.48-15.52.36-19.22zm18.05-12.2c-.84-1.22-1.86-2.35-3-3.38.05-.05.11-.1.13-.17 1.06-2.75 2.68-5.33 4.69-7.48a7.453 7.453 0 011.66 4.7c.01 2.66-1.39 4.99-3.48 6.33zm-5.85-9.63c1.56-.39 3.3.03 4.5 1.09.01.01.02.01.03.02-.95 1.43-1.74 2.96-2.36 4.54-.63-.52-1.28-1.01-1.97-1.45-.14-.09-.3-.17-.45-.25.29-1.3.37-2.63.25-3.95zm7.05-2.09c-.72.77-1.39 1.58-2.01 2.44-1.39-1.2-3.37-1.68-5.16-1.27-.14-.85-.35-1.68-.66-2.5a.433.433 0 00-.22-.24 7.35 7.35 0 012.82-.56c2.04 0 3.88.82 5.23 2.13zm-8.69-1.27c-.02.09-.02.18.01.26.79 2.11.97 4.37.55 6.56-.74-.4-1.49-.77-2.27-1.07-.46-.18-1.03-.3-1.58-.42-.2-.04-.41-.09-.61-.14a7.542 7.542 0 013.9-5.19zm-4.04 6.66c0-.18.01-.35.03-.53l.53.12c.53.11 1.04.22 1.43.37 1.18.46 2.32 1.04 3.4 1.72 2.12 1.35 3.96 3.11 5.33 5.09-.97.46-2.06.73-3.21.73-4.14.01-7.51-3.36-7.51-7.5z"/> -->
  <path d="M65.4 45.15H43.38c.02-.05.03-.1.03-.16V36.7c0-.01.01-.02.01-.02.08-.87.67-1.7 1.79-2.52.55-.41 1.19-.8 1.81-1.18.59-.36 1.19-.72 1.71-1.1 1.77-1.27 2.4-2.89 2.78-4.32.26-.96.28-2 .06-3.1a.453.453 0 00-.27-.33.5.5 0 00-.43.02c-1.29.73-2.36 1.5-3.29 2.34-1.85 1.67-3.29 3.85-4.17 6.2v-8.85c4.48-.2 8.07-3.89 8.07-8.42 0-4.65-3.78-8.43-8.44-8.43s-8.43 3.78-8.43 8.43c0 4.46 3.48 8.11 7.87 8.41v15.7c-.89-2.33-2.32-4.5-4.16-6.16-.93-.84-2.01-1.61-3.29-2.34a.498.498 0 00-.43-.02c-.14.06-.24.19-.27.33-.22 1.09-.2 2.14.06 3.1.38 1.42 1.01 3.05 2.78 4.32.53.38 1.12.74 1.71 1.1.62.38 1.27.77 1.82 1.18 1.09.81 1.67 1.61 1.78 2.46V45c0 .04.01.07.02.1-.01.02-.03.04-.04.06H20.14a.47.47 0 100 .94h22.28v1.93c-.78.79-1.54 1.49-2.3 2.11-1.44-.17-2.88-.25-4.33-.27l-3.41-1.76a.466.466 0 00-.63.2c-.12.23-.03.51.2.63l1.86.96c-1.11.04-2.22.11-3.33.24-.26.03-.44.26-.41.52.03.26.28.44.52.41 2.8-.33 5.63-.35 8.44-.09l-.13.1c-.69.49-1.39.97-2.09 1.45-1.1.76-2.2 1.54-3.29 2.32h-.01c-2.1.22-4.17.67-6.14 1.34-.24.08-.38.35-.29.59.07.2.25.32.44.32.05 0 .1-.01.15-.02 1.38-.47 2.82-.82 4.28-1.06-1.61 1.23-2.88 2.38-3.92 3.55a.472.472 0 00.35.78c.13 0 .26-.05.35-.16 1.17-1.31 2.62-2.59 4.58-4.02.98-.71 1.97-1.4 2.97-2.1-.38 1.98-1 3.96-1.87 5.9-.11.24 0 .51.23.62.06.03.13.04.19.04.18 0 .35-.1.43-.28.43-.95.78-1.9 1.09-2.86.25.68.47 1.37.65 2.09.05.21.24.36.45.36.04 0 .07 0 .11-.01.25-.06.41-.31.35-.56a19.37 19.37 0 00-1.13-3.32c.24-.91.44-1.83.58-2.74.7-.48 1.39-.97 2.08-1.45 1.01-.71 1.99-1.54 2.99-2.5v10.49c-.49.82-1.08 1.59-1.73 2.32-1.27.64-2.68.97-4.1 1.2-1.23-.79-2.64-1.36-4.09-1.63a.469.469 0 10-.18.92c.96.18 1.9.51 2.77.94l-.18.03-.42.06c-1.75.25-3.76.59-5.53 1.49-.23.12-.32.4-.21.63.08.16.25.26.42.26.07 0 .14-.02.21-.05 1.06-.54 2.25-.86 3.41-1.08l-1.89 1.72c-.19.17-.21.47-.03.66.09.1.22.15.35.15.11 0 .23-.04.31-.12l2.92-2.66c.01-.01.02-.03.03-.04a.59.59 0 01.14-.02l.42-.06c1.36-.19 2.75-.41 4.09-.8-1.05.98-2.18 1.91-3.3 2.82-1.88 1.53-3.82 3.12-5.35 4.95-.17.2-.14.49.06.66.09.07.19.11.3.11.13 0 .27-.06.36-.17 1.06-1.27 2.35-2.43 3.68-3.55-.36 1.46-.77 2.91-1.27 4.3a.471.471 0 00.44.63c.19 0 .37-.12.44-.31.64-1.77 1.17-3.61 1.57-5.47.01-.04 0-.08 0-.12l.36-.3c2.16-1.76 4.37-3.58 5.99-5.78v7.23c-.21 1.04-.78 2.03-1.45 2.9l-3.25 1.03c-.25.08-.38.34-.3.59.06.2.25.33.45.33.05 0 .09-.01.14-.02l1.83-.58c-.03.04-.07.08-.11.12l-.54.57c-.76.8-1.55 1.63-2.19 2.53-.15.21-.1.5.11.65.08.06.18.09.27.09.14 0 .29-.07.38-.2.61-.85 1.37-1.65 2.11-2.43l.54-.58c.37-.4.76-.84 1.13-1.32.09-.06.15-.15.18-.25.24-.32.49-.64.7-.99v7.8a.47.47 0 10.94 0v-3.75c.57.62 1.06 1.32 1.43 2.07.08.16.25.26.42.26.07 0 .14-.02.21-.05.23-.12.32-.4.21-.63a10.3 10.3 0 00-2.27-2.97v-7.8c1.3 1.01 2.54 2.08 3.68 3.25.03 1.59.17 3.18.44 4.74.04.23.24.39.46.39.03 0 .05 0 .08-.01.25-.04.43-.29.38-.54-.2-1.15-.3-2.31-.37-3.48.99 1.1 1.93 2.23 2.77 3.45a.47.47 0 00.65.12c.21-.15.26-.44.12-.65a36.85 36.85 0 00-5.21-5.94c2.12.2 4.21.64 6.22 1.35.05.02.1.03.16.03a.468.468 0 00.15-.91c-.89-.32-1.8-.57-2.72-.78l1.98-.59c.25-.07.39-.33.31-.58a.466.466 0 00-.58-.31l-3.57 1.06c-.03.01-.05.03-.07.04-1-.16-2-.29-3.02-.33h-.01c-.61-.51-1.22-1.02-1.86-1.49V60.1c.01-.03 0-.06 0-.09v-5.38c1.36.97 2.76 1.98 4.13 3.06-.04 1.66.11 3.33.44 4.97.05.22.24.38.46.38.03 0 .06 0 .09-.01.25-.05.42-.3.37-.55-.27-1.33-.4-2.69-.42-4.03 2.13 1.74 4.15 3.65 5.79 5.81a.47.47 0 00.65.1c.21-.16.25-.45.09-.65-.72-.96-1.52-1.85-2.36-2.72 1.61.16 3.18.48 4.68.97.05.02.1.02.15.02.2 0 .38-.12.44-.32a.463.463 0 00-.3-.59c-.62-.21-1.26-.37-1.9-.53l1.16-.34c.25-.07.39-.33.32-.58a.467.467 0 00-.58-.32l-2.93.87c-.68-.1-1.37-.17-2.07-.2-1.73-1.64-3.61-3.13-5.47-4.5 1.64-.12 3.29-.15 4.94-.07.85.82 1.76 1.59 2.72 2.29.08.06.18.09.28.09a.463.463 0 00.28-.84c-.61-.45-1.19-.93-1.76-1.43 1.12.1 2.24.23 3.32.42.03 0 .06.01.08.01.22 0 .42-.16.46-.39.05-.25-.12-.5-.38-.54-2.11-.38-4.31-.55-6.52-.58 1.06-.57 2.14-1.04 3.1-1.33.25-.07.39-.33.32-.58a.467.467 0 00-.58-.32c-1.45.42-3.15 1.23-4.65 2.2-.01 0-.01.01-.02.02-.93.03-1.85.09-2.76.19-.53-.38-1.05-.75-1.56-1.12v-7.31H65.4c.26 0 .47-.21.47-.47-.01-.35-.22-.56-.47-.56zM48.21 27.18c.73-.66 1.57-1.28 2.54-1.87a5.8 5.8 0 01-.14 2.01c-.36 1.33-.89 2.71-2.42 3.8-.51.37-1.08.71-1.65 1.06-.64.39-1.3.79-1.88 1.22-.26.19-.49.38-.7.58.76-2.57 2.26-5 4.25-6.8zm-6.96 13.11c-.58-.43-1.24-.84-1.89-1.23-.57-.35-1.14-.7-1.65-1.06-1.53-1.1-2.07-2.47-2.42-3.8-.17-.63-.22-1.3-.14-2.01.97.59 1.8 1.2 2.54 1.87 1.99 1.8 3.49 4.23 4.26 6.8a8.6 8.6 0 00-.7-.57zm9.29-24.87c0 2.65-1.39 4.98-3.48 6.32-.82-1.19-1.8-2.29-2.9-3.29.99-3.25 2.68-5.92 4.8-7.6a7.4 7.4 0 011.58 4.57zm-9.35-3.28c1.53-.39 3.24 0 4.44 1.02-.91 1.35-1.66 2.9-2.22 4.62-.63-.52-1.29-1.02-1.99-1.46-.14-.09-.3-.16-.44-.25.24-1.15.33-2.53.21-3.93zm1.85-4.22c2.08 0 3.96.85 5.32 2.22-.79.63-1.53 1.4-2.19 2.26a6.01 6.01 0 00-5.1-1.19c-.16-.96-.42-1.9-.83-2.74.87-.35 1.81-.55 2.8-.55zm-3.64.95c.99 2.05 1.08 4.71.71 6.71-.73-.39-1.48-.76-2.25-1.06-.46-.18-1.03-.3-1.58-.42-.2-.04-.4-.09-.6-.13a7.573 7.573 0 013.72-5.1zm3.64 14.05c-4.13 0-7.5-3.36-7.5-7.5 0-.18.01-.35.03-.52l.52.12c.53.11 1.04.22 1.43.37 1.18.46 2.32 1.04 3.39 1.72 2.12 1.35 3.95 3.1 5.33 5.08-.97.47-2.05.73-3.2.73z" fill="#231f20"/>
</svg>
