<svg class="process-icon" title="Recompose process — step four icon" xmlns="http://www.w3.org/2000/svg" width="86.43" height="86.43" viewBox="0 0 86.43 86.43">
  <style>
    .process-icon path {fill:#3b3331}
  </style>
  <path d="M77.03 53.58L65.19 40.11c-2.5-2.85-6.07-4.45-9.75-4.54-.11-.4-.74-1-1.33-1.5-1.39-1.18-2.03-.38-3.43-1.56-1.39-1.18-.76-1.99-2.15-3.17s-2.03-.38-3.43-1.56c-.65-.55-.83-1.13-1.15-1.88a4.73 4.73 0 00-1.48-1.91c-.82-.62-1.64-.82-2.63-.82-1.61-.01-2.9.66-3.71 2.14-.47.86-.67 1.76-1.45 2.42-1.37 1.17-2.01.37-3.38 1.54-.86.73-.93 1.32-1.19 1.94l-5.34-1.75a2.785 2.785 0 00-3.6 2.15l-3.07-1.12a2.783 2.783 0 00-3.65 2.29l-1.38-.54a2.796 2.796 0 00-3.32 1.07 2.81 2.81 0 00.13 3.29c.03.03.06.06.09.08-.43.66-.57 1.48-.37 2.24.2.77.72 1.42 1.43 1.79l20.85 10.94c1.2.62 2.55.97 3.89 1.02l14.29.55c3.15.12 6.04 1.63 7.94 4.15l4.3 5.69c.1.13.25.2.4.2.1 0 .21-.03.3-.1.22-.17.26-.48.1-.7l-4.3-5.69a11.412 11.412 0 00-8.7-4.54l-14.3-.56a8.4 8.4 0 01-3.47-.91L11.48 39.82c-.46-.24-.79-.65-.92-1.15s-.04-1.03.25-1.45c.47-.7 1.35-.99 2.12-.69l12.26 5.11c-.11.91.13 1.84.69 2.58.59.79 1.44 1.27 2.39 1.37l18.38 1.94c.27.03.52-.17.55-.44a.497.497 0 00-.44-.55L28.38 44.6c-.67-.07-1.28-.42-1.7-.98-.43-.58-.61-1.31-.48-2.05a2.48 2.48 0 012.45-2.05h8.7c2.62.01 5.33.01 7.97-.45 1.4-.24 2.7-.73 3.96-1.19.75-.28 1.53-.57 2.32-.8 4.62-1.36 9.66.09 12.84 3.71l11.85 13.47c.1.11.24.17.38.17.12 0 .24-.04.33-.12.2-.21.22-.52.03-.73zM48.6 35.15c.36 0 .65.29.65.65 0 .36-.29.65-.65.65-.36 0-.65-.29-.65-.65-.01-.36.28-.65.65-.65zm-3.02-3c.36 0 .65.29.65.65s-.29.65-.65.65c-.36 0-.65-.29-.65-.65s.29-.65.65-.65zm-3.01-3c.36 0 .65.29.65.65 0 .36-.29.65-.65.65s-.65-.29-.65-.65c-.01-.36.28-.65.65-.65zm0 6c.36 0 .65.29.65.65 0 .36-.29.65-.65.65s-.65-.29-.65-.65c-.01-.36.28-.65.65-.65zm-3.02-9c.36 0 .65.29.65.65s-.29.65-.65.65-.65-.29-.65-.65.29-.65.65-.65zm0 6c.36 0 .65.29.65.65s-.29.65-.65.65-.65-.29-.65-.65.29-.65.65-.65zm-9.04 3c.36 0 .65.29.65.65 0 .36-.29.65-.65.65s-.65-.29-.65-.65c-.01-.36.29-.65.65-.65zm6.03-6c.36 0 .65.29.65.65 0 .36-.29.65-.65.65s-.65-.29-.65-.65c-.01-.36.29-.65.65-.65zm0 6c.36 0 .65.29.65.65 0 .36-.29.65-.65.65s-.65-.29-.65-.65c-.01-.36.29-.65.65-.65zm-3.02-3c.36 0 .65.29.65.65s-.29.65-.65.65-.65-.29-.65-.65.29-.65.65-.65zm-11.15-.94c.43-.73 1.29-1.06 2.1-.8l5.08 1.66c-.1.11-.2.22-.34.33-1.15.98-1.79.59-2.77 1.12l-4.29-1.57c.02-.25.08-.51.22-.74zm-6.69 1c.44-.72 1.31-1.04 2.09-.78l3.62 1.32c.04.02.08.04.13.05l4 1.46c-.79.85-.65 1.52-1.31 2.35l-8.77-3.44c-.02-.34.06-.67.24-.96zm-5.04 3.75c-.47-.61-.5-1.45-.07-2.1.47-.7 1.35-.99 2.13-.69l10.65 4.18c-.46.29-.94.43-1.49.54-.55.11-1.01.36-1.46.66l-7.11-2.96a2.81 2.81 0 00-2.65.37z"/>
</svg>