<svg class="process-icon" title="Recompose process — step two icon" xmlns="http://www.w3.org/2000/svg" width="86.44" height="86.44" viewBox="0 0 86.44 86.44">
  <style>
    .process-icon path {fill:#3b3331}
  </style>
  <path d="M48.77 24.6c-.37-.14-.76-.22-1.13-.3-.61-.13-1.19-.26-1.64-.6-.44-.34-.56-.85-.59-1.22-.04-.63.05-1.08.36-1.71.01-.02.01-.04.02-.06.04-.1.08-.21.12-.3.34-.94.58-1.92.7-2.91.11-.94.08-1.68-.08-2.35a3.702 3.702 0 00-2.67-2.68c-1.2-.3-2.38.05-3.23.97-.89.96-1.27 2.4-1.07 4.06.12 1.04.46 2.05.78 2.91.04.11.08.22.13.34 0 .01 0 .02.01.03.31.63.4 1.08.36 1.71-.02.37-.15.89-.59 1.22-.45.34-1.02.47-1.63.6-.37.08-.75.17-1.12.3-.86.32-1.53.79-1.99 1.39-.5.67-.75 1.36-.8 2.25-.04.77.1 1.47.23 2.15.08.39.16.78.2 1.19.04.41.09.82.14 1.24.16 1.32.33 2.69.19 3.94-.14 1.19 0 2.33.19 3.6.16 1.13.28 2.45-.06 3.65-.06.21-.13.42-.2.64-.35 1.06-.75 2.25.02 3.43.47.73 1.29 1.2 2.15 1.29.14.51.29 1.02.44 1.52.44 1.44.89 2.92.94 4.4.02.67-.03 1.35-.08 1.93-.02.22-.03.44-.05.66-.03.42-.05.85-.12 1.24-.19 1.08-.11 2.32.25 3.7.15.57.34 1.13.57 1.66.19.44.28.86.35 1.37.12.91.14 2.25-.49 3.41l-.07.13c-.32.58-.86 1.55-.63 2.32.09.3.28.54.56.69.32.18.68.2.97.2h.11l1.55-.01c.34 0 .91-.01 1.32-.37.41.36.98.37 1.32.37l1.55.01h.11c.29 0 .64-.02.97-.2.28-.15.48-.39.56-.69.22-.77-.31-1.74-.63-2.32l-.07-.13c-.63-1.16-.61-2.49-.49-3.41.07-.5.15-.93.35-1.37.24-.54.43-1.1.57-1.66.35-1.38.44-2.62.25-3.7-.07-.39-.1-.83-.12-1.24-.01-.22-.03-.44-.05-.66-.05-.58-.11-1.27-.08-1.93.05-1.47.5-2.96.94-4.39.15-.5.31-1.02.45-1.53.83-.11 1.62-.58 2.07-1.28.76-1.18.37-2.37.02-3.43-.07-.21-.14-.43-.2-.64-.34-1.2-.22-2.52-.06-3.65.18-1.27.33-2.42.19-3.6-.15-1.25.02-2.62.19-3.94l.15-1.25c.04-.41.12-.8.2-1.19.13-.68.27-1.38.23-2.15-.05-.89-.29-1.58-.8-2.25-.51-.61-1.18-1.08-2.04-1.4zm-7.48-10.55c.47-.51 1.08-.78 1.72-.78.2 0 .4.02.6.08.97.24 1.75 1.04 2 2.02.14.55.16 1.19.06 2.01-.11.92-.33 1.83-.65 2.7-.16.44-.37.94-.72 1.34-.35.41-.92.77-1.44.67-.35-.07-.65-.28-.98-.67-.34-.41-.55-.91-.71-1.34-.29-.8-.61-1.75-.73-2.7-.07-.8-.09-2.3.85-3.33zm9.13 16.16c-.08.42-.17.84-.21 1.28-.04.4-.09.81-.14 1.23-.17 1.37-.35 2.79-.19 4.16.12 1.08 0 2.12-.18 3.37-.18 1.23-.31 2.67.08 4.04.06.22.14.45.21.67.33.98.61 1.83.09 2.64-.25.38-.63.66-1.06.8.2-.91.33-1.84.28-2.79-.07-1.64-.55-3.8-.7-4.43l-.09-.41c-.5-2.13-.82-3.54-.34-5.68.4-1.77.74-3.5.62-5.28a.454.454 0 00-.49-.43c-.25.02-.44.24-.43.49.12 1.65-.21 3.31-.6 5.01-.53 2.34-.16 3.91.34 6.09l.09.41c.29 1.25.62 3.03.67 4.27.08 1.67-.41 3.28-.93 4.99-.45 1.49-.92 3.04-.98 4.63-.03.72.03 1.44.08 2.05.02.21.03.42.05.63.03.44.06.9.14 1.34.17.95.09 2.06-.23 3.31-.13.52-.31 1.03-.52 1.52-.25.57-.35 1.11-.41 1.61-.2 1.5 0 2.88.59 3.97l.08.14c.2.36.67 1.22.55 1.62-.01.05-.04.1-.12.14-.16.09-.4.09-.63.08l-1.55-.01c-.29 0-.58-.02-.72-.14-.04-.03-.14-.13-.14-.47V46.32c0-.25-.21-.46-.46-.46s-.46.21-.46.46v24.73c0 .35-.11.45-.14.48-.14.13-.43.14-.72.14l-1.55.01c-.22 0-.47 0-.63-.08-.08-.05-.11-.1-.12-.14-.12-.4.35-1.26.56-1.62l.08-.14c.59-1.09.79-2.46.59-3.97-.07-.5-.17-1.05-.41-1.61-.21-.49-.39-1-.52-1.52-.32-1.25-.4-2.36-.23-3.31.08-.44.11-.9.14-1.34.01-.21.03-.42.05-.63.06-.61.11-1.33.08-2.05-.06-1.59-.53-3.14-.98-4.63-.52-1.71-1.01-3.32-.93-4.99.06-1.24.39-3.02.67-4.27l.09-.4c.51-2.18.87-3.75.34-6.1-.4-1.77-.72-3.38-.59-5.03a.458.458 0 00-.42-.49.458.458 0 00-.49.42c-.14 1.78.2 3.45.61 5.3.48 2.14.15 3.55-.34 5.69l-.09.4c-.3 1.29-.64 3.13-.7 4.43-.04.96.08 1.89.29 2.82a2.07 2.07 0 01-1.14-.83c-.52-.8-.24-1.65.09-2.64.08-.23.15-.45.21-.67.39-1.37.26-2.81.09-4.04-.18-1.25-.31-2.29-.18-3.37.16-1.37-.02-2.79-.19-4.16-.05-.41-.1-.82-.14-1.22-.04-.44-.13-.86-.21-1.28-.13-.65-.25-1.26-.21-1.92.04-.7.22-1.23.61-1.75.34-.46.89-.83 1.57-1.08.31-.11.64-.19 1-.27.68-.15 1.38-.3 1.99-.77.56-.43.89-1.1.95-1.89.26.2.57.37.96.45.12.03.25.04.37.04.53 0 1.02-.23 1.42-.53v.03c.05.8.39 1.47.95 1.9.61.47 1.32.62 2 .77.36.08.7.15 1.01.27.69.25 1.23.63 1.58 1.08.39.52.58 1.04.61 1.75-.02.66-.14 1.27-.27 1.92z"/>
  <path d="M43.13 8.22c-6.28 0-11.38 5.11-11.38 11.38v47.3c0 6.28 5.1 11.38 11.38 11.38s11.38-5.1 11.38-11.38V19.6c0-6.28-5.11-11.38-11.38-11.38zM53.59 66.9c0 5.77-4.69 10.46-10.46 10.46S32.67 72.67 32.67 66.9V19.6c0-5.77 4.69-10.46 10.46-10.46s10.46 4.69 10.46 10.46v47.3z"/>
</svg>