<?xml version="1.0" standalone="no"?>
<!DOCTYPE svg PUBLIC "-//W3C//DTD SVG 20010904//EN"
 "http://www.w3.org/TR/2001/REC-SVG-20010904/DTD/svg10.dtd">
<svg version="1.0" xmlns="http://www.w3.org/2000/svg"
 width="1080.000000pt" height="1080.000000pt" viewBox="0 0 1080.000000 1080.000000"
 preserveAspectRatio="xMidYMid meet">
<metadata>
Created by potrace 1.14, written by Peter Selinger 2001-2017
</metadata>
<g transform="translate(0.000000,1080.000000) scale(0.100000,-0.100000)"
fill="#000000" stroke="none">
<path d="M3641 8975 c-10 -13 -17 -31 -111 -305 -45 -129 -97 -278 -115 -330
-18 -52 -54 -153 -79 -225 -24 -71 -89 -258 -144 -415 -55 -157 -136 -388
-180 -515 -44 -126 -92 -264 -107 -305 -14 -41 -27 -79 -29 -85 -2 -5 -6 -17
-9 -25 -6 -16 -183 -526 -337 -970 -50 -146 -102 -294 -115 -330 -22 -61 -98
-278 -253 -725 -36 -104 -69 -194 -73 -199 -6 -7 -47 0 -119 18 -8 2 -96 25
-195 49 -99 25 -238 62 -310 82 -71 20 -134 37 -140 39 -5 1 -37 10 -70 20
-33 10 -67 20 -75 21 -8 2 -44 13 -79 24 -99 32 -137 36 -166 17 -18 -12 -25
-25 -25 -49 0 -42 8 -53 52 -72 29 -12 362 -111 438 -130 8 -2 51 -13 95 -25
44 -12 87 -23 95 -25 8 -2 35 -8 60 -15 25 -7 46 -12 47 -11 2 0 21 -6 43 -14
22 -8 43 -14 45 -14 13 1 241 -55 247 -60 7 -6 1 -25 -78 -251 -25 -74 -65
-189 -88 -255 -23 -66 -44 -124 -48 -130 -3 -5 -9 -26 -13 -45 -4 -19 -11 -41
-16 -50 -5 -8 -58 -159 -119 -335 -250 -719 -294 -843 -326 -905 -111 -219
-252 -331 -544 -435 -58 -20 -124 -44 -147 -52 -38 -14 -41 -18 -45 -57 -1
-24 -2 -49 0 -57 2 -12 110 -14 740 -14 405 0 742 3 748 7 5 4 10 28 9 55 l-1
48 -145 60 c-80 33 -169 73 -197 88 -62 34 -125 103 -140 155 -31 101 -5 268
79 512 33 96 62 180 63 185 2 6 6 17 9 25 3 8 12 35 20 60 8 25 74 214 145
420 72 206 169 488 217 625 47 138 94 260 103 273 l17 22 90 -19 c50 -11 108
-22 129 -25 69 -11 91 -18 115 -40 48 -43 78 -141 96 -319 3 -37 8 -76 10 -86
2 -10 6 -36 9 -57 29 -185 122 -506 168 -583 111 -184 341 -310 652 -357 21
-3 48 -7 60 -10 138 -27 638 -20 709 10 65 26 66 45 9 160 -28 55 -60 133 -72
171 -23 75 -62 156 -131 275 -24 41 -50 87 -58 103 -21 39 -134 151 -216 213
-90 67 -303 173 -376 188 -105 20 -369 118 -649 240 -114 49 -115 51 -25 36
152 -27 253 -43 346 -55 19 -3 43 -6 54 -9 11 -2 45 -7 75 -10 105 -13 135
-17 160 -21 14 -2 54 -6 90 -10 36 -3 76 -8 90 -10 14 -2 61 -7 105 -10 44 -4
98 -8 120 -10 149 -13 325 -23 557 -31 200 -6 205 -7 217 -20 5 -5 27 -67 50
-139 23 -71 71 -218 106 -325 54 -166 210 -649 291 -899 13 -41 27 -86 29
-100 26 -125 33 -189 32 -271 -2 -78 -6 -104 -27 -145 -47 -97 -147 -166 -322
-227 -79 -26 -98 -37 -99 -53 -2 -21 -2 -63 0 -80 1 -7 462 -10 1374 -9 754 1
1374 2 1377 3 3 0 5 25 4 53 l-1 53 -74 26 c-214 75 -326 144 -414 257 -48 60
-109 170 -145 262 -19 47 -163 461 -235 675 -13 39 -83 243 -155 455 -181 528
-189 552 -196 596 l-6 39 161 36 c126 28 165 34 181 25 24 -13 110 -120 146
-182 14 -24 48 -100 75 -167 89 -220 157 -326 288 -450 182 -172 357 -241 605
-239 74 1 147 7 206 17 14 2 45 7 70 10 117 16 346 93 488 164 51 26 111 73
113 90 0 3 2 15 4 25 6 31 -14 58 -111 158 -49 51 -139 154 -199 228 -164 203
-202 242 -285 298 -104 69 -194 109 -290 128 -19 3 -192 8 -385 9 -192 2 -372
4 -400 5 l-50 1 100 35 c191 67 328 119 420 159 17 8 64 28 105 46 73 31 345
164 405 197 16 9 71 40 122 69 100 56 159 70 227 52 21 -6 107 -44 190 -84
227 -110 471 -206 603 -236 45 -10 168 -13 223 -5 93 14 205 55 292 107 85 52
474 347 550 418 97 90 129 139 135 210 8 86 -21 115 -183 180 -27 10 -123 55
-214 99 -152 74 -258 114 -335 127 -238 39 -502 9 -652 -77 -18 -10 -50 -27
-70 -39 -91 -51 -244 -167 -548 -414 -228 -186 -319 -243 -610 -385 -180 -88
-285 -133 -292 -127 -2 3 60 51 139 108 224 162 320 268 409 451 48 101 124
329 138 418 28 172 -1 328 -96 515 -68 134 -159 234 -293 322 -47 31 -123 82
-170 113 -124 84 -157 101 -212 107 -46 6 -51 4 -84 -28 -18 -18 -34 -37 -34
-43 0 -5 -6 -17 -14 -25 -23 -27 -138 -260 -212 -432 -35 -84 -98 -273 -109
-329 -17 -90 -12 -255 10 -360 3 -14 7 -36 10 -50 14 -77 89 -321 130 -425 72
-184 94 -253 110 -340 19 -112 18 -113 -155 -170 -153 -50 -397 -119 -500
-142 -36 -8 -74 -17 -85 -19 -48 -11 -111 -14 -123 -6 -7 5 -24 42 -39 83 -31
88 -281 823 -293 859 -4 14 -63 185 -130 380 -67 195 -134 393 -150 440 -16
47 -81 238 -145 425 -64 187 -131 385 -150 440 -18 55 -93 273 -165 485 -72
212 -181 529 -241 705 -60 176 -144 423 -187 550 l-79 230 -457 0 c-296 0
-460 -3 -465 -10z m-152 -1441 c135 -412 173 -530 176 -544 2 -8 26 -82 53
-165 27 -82 96 -292 151 -465 56 -173 106 -326 111 -340 5 -14 38 -117 75
-230 117 -361 210 -649 399 -1231 58 -179 106 -329 106 -332 0 -13 -594 13
-826 38 -27 3 -74 7 -104 10 -30 3 -71 8 -90 10 -19 3 -93 11 -164 20 -130 16
-180 22 -226 31 -14 2 -38 6 -55 8 -74 11 -131 19 -140 22 -14 3 -84 14 -120
19 -16 3 -41 7 -55 10 -14 3 -52 10 -85 16 -33 5 -103 19 -155 29 -52 11 -113
22 -134 26 -22 3 -49 10 -62 14 -12 5 -25 6 -28 3 -3 -4 -6 0 -6 8 0 13 181
550 200 594 5 11 41 115 80 230 40 116 85 248 101 295 17 47 31 90 32 95 2 6
5 15 9 20 3 6 13 33 21 60 15 48 107 317 292 850 48 138 109 313 135 390 200
584 241 698 246 692 2 -2 30 -84 63 -183z"/>
</g>
</svg>
